<svg width="60" height="60" viewBox="0 0 60 60" fill="none" xmlns="http://www.w3.org/2000/svg">
<g clip-path="url(#clip0_32_38)">
<path d="M60 30C60 25.6425 57.7022 21.6854 54.0265 19.5121C54.4582 17.7741 54.2941 15.9299 53.5301 14.2566C52.713 12.4676 51.2971 11.0692 49.5432 10.2799C49.365 7.71574 48.3125 5.32172 46.51 3.43113C44.4004 1.21852 41.5543 0 38.4961 0C35.1735 0 32.0745 1.49637 30 3.97172C27.9257 1.49637 24.8266 0 21.5039 0C18.4457 0 15.5996 1.21852 13.49 3.43125C11.6875 5.32184 10.635 7.71574 10.4568 10.28C8.70281 11.0693 7.28684 12.4677 6.46992 14.2567C5.70574 15.93 5.5418 17.7743 5.97352 19.5122C2.29781 21.6854 0 25.6425 0 30C0 34.3575 2.29781 38.3146 5.97352 40.4879C5.5418 42.2259 5.70586 44.0701 6.46992 45.7434C7.28695 47.5324 8.70293 48.9308 10.4568 49.7201C10.635 52.2843 11.6875 54.6783 13.49 56.5689C15.5996 58.7815 18.4457 60 21.5039 60C24.8266 60 27.9257 58.5036 30 56.0283C32.0745 58.5036 35.1735 60 38.4961 60C41.5543 60 44.4004 58.7815 46.51 56.5688C48.3125 54.6782 49.365 52.2841 49.5432 49.72C51.2972 48.9307 52.7132 47.5323 53.5301 45.7433C54.2943 44.07 54.4582 42.2258 54.0265 40.4878C57.7022 38.3146 60 34.3575 60 30V30ZM51.4983 37.8516H43.125V32.7987H49.3359C50.3067 32.7987 51.0938 32.0116 51.0938 31.0409C51.0938 30.9018 51.0936 25.8986 51.0936 25.8986C51.0936 24.9278 50.3066 24.1407 49.3358 24.1407C48.365 24.1407 47.578 24.9278 47.578 25.8986V29.283H43.125V26.2362C43.125 24.2977 41.5479 22.7205 39.6094 22.7205H36.0938C35.123 22.7205 34.3359 23.5076 34.3359 24.4784C34.3359 25.4491 35.123 26.2362 36.0938 26.2362H39.6094V37.8516H31.7573V34.6875C31.7573 33.7167 30.9703 32.9297 29.9995 32.9297C29.0288 32.9297 28.2417 33.7167 28.2417 34.6875V37.8516C28.2417 39.7901 29.8188 41.3672 31.7573 41.3672H50.6208C50.8518 42.3316 50.7565 43.3536 50.332 44.283C49.7641 45.5265 48.6827 46.4334 47.3647 46.7714C46.5568 46.9786 46.0057 47.7248 46.0455 48.5579C46.1453 50.648 45.4065 52.6315 43.9654 54.143C42.5258 55.6528 40.5834 56.4844 38.4961 56.4844C35.6488 56.4844 33.0425 54.8736 31.7578 52.3525V48.6328H34.9219C35.8927 48.6328 36.6797 47.8458 36.6797 46.875C36.6797 45.9042 35.8927 45.1172 34.9219 45.1172H31.7578C29.8193 45.1172 28.2422 46.6943 28.2422 48.6328V52.3523C26.9577 54.8736 24.3514 56.4844 21.5039 56.4844C19.4166 56.4844 17.4742 55.6528 16.0345 54.1429C14.9978 53.0556 14.327 51.7234 14.0679 50.2836H18.2812C20.2198 50.2836 21.7969 48.7065 21.7969 46.768V44.595H23.3203C24.2911 44.595 25.0781 43.808 25.0781 42.8372C25.0781 41.8664 24.2911 41.0794 23.3203 41.0794H21.7969V38.9062C21.7969 36.9677 20.2198 35.3906 18.2812 35.3906H15.2344C14.2636 35.3906 13.4766 36.1777 13.4766 37.1484C13.4766 38.1192 14.2636 38.9062 15.2344 38.9062H18.2812V46.768C18.2812 46.768 12.6396 46.7725 12.6352 46.7713C11.3171 46.4333 10.2356 45.5264 9.66785 44.2829C9.09879 43.0368 9.12082 41.6239 9.72867 40.4067C9.94582 39.9716 9.97313 39.4661 9.80402 39.0101C9.63492 38.5542 9.28441 38.1887 8.83594 38.0006C5.60391 36.6448 3.51562 33.5043 3.51562 30C3.51562 26.4957 5.60391 23.3552 8.83582 21.9995C8.88773 21.9777 8.93801 21.953 8.98723 21.9266H11.7186V27.2C11.7186 28.1708 12.5057 28.9579 13.4764 28.9579C14.4472 28.9579 15.2343 28.1708 15.2343 27.2V21.9266H21.7969V30.4813C21.7969 31.4521 22.5839 32.2391 23.5547 32.2391C24.5255 32.2391 25.3125 31.4521 25.3125 30.4813V27.3172H27.0254C27.9962 27.3172 28.7832 26.5302 28.7832 25.5594C28.7832 24.5886 27.9962 23.8016 27.0254 23.8016H25.3125V21.9266C25.3125 19.9881 23.7354 18.411 21.7969 18.411H20.7423V13.7109C20.7423 12.7402 19.9553 11.9531 18.9845 11.9531C18.0137 11.9531 17.2267 12.7402 17.2267 13.7109V18.4109H9.33164C9.16453 17.5127 9.27586 16.5754 9.66785 15.717C10.2357 14.4735 11.3171 13.5666 12.6352 13.2286C13.443 13.0214 13.9942 12.2752 13.9543 11.4421C13.8546 9.35203 14.5934 7.36852 16.0345 5.85703C17.4742 4.34719 19.4166 3.51562 21.5039 3.51562C24.441 3.51562 27.1214 5.22926 28.3594 7.88824V13.8281C28.3594 15.7666 29.9365 17.3438 31.875 17.3438H41.25C42.2208 17.3438 43.0078 16.5567 43.0078 15.5859C43.0078 14.6152 42.2208 13.8281 41.25 13.8281H40.8984V11.3672C40.8984 10.3964 40.1114 9.60938 39.1406 9.60938C38.1698 9.60938 37.3828 10.3964 37.3828 11.3672V13.8281H31.875C31.875 13.8281 31.8718 7.49953 31.8661 7.44176C33.1854 5.03895 35.727 3.51562 38.4961 3.51562C40.5834 3.51562 42.5258 4.34719 43.9655 5.85715C45.4066 7.36863 46.1454 9.35203 46.0457 11.4422C46.0058 12.2753 46.557 13.0215 47.3648 13.2287C48.6829 13.5667 49.7644 14.4736 50.3321 15.7171C50.9012 16.9632 50.8792 18.3761 50.2713 19.5934C50.0542 20.0284 50.0269 20.5341 50.196 20.9899C50.3651 21.4458 50.7157 21.8113 51.1641 21.9994C54.3961 23.3552 56.4844 26.4957 56.4844 30C56.4844 33.3819 54.5391 36.4243 51.4983 37.8516V37.8516Z" fill="#FF5A30"/>
</g>
<defs>
<clipPath id="clip0_32_38">
<rect width="60" height="60" fill="white"/>
</clipPath>
</defs>
</svg>
