<svg width="24" height="38" viewBox="0 0 24 38" fill="none" xmlns="http://www.w3.org/2000/svg">
<path fill-rule="evenodd" clip-rule="evenodd" d="M6.16668 3.86983C4.78596 3.86983 3.66668 4.98912 3.66668 6.36983V31.6303C3.66668 33.011 4.78596 34.1302 6.16668 34.1302H17.8333C19.2141 34.1302 20.3333 33.011 20.3333 31.6303V6.36983C20.3333 4.98912 19.2141 3.86983 17.8333 3.86983H17.6944L17.2884 4.84392C17.0296 5.46495 16.4228 5.86946 15.75 5.86946H8.25001C7.57722 5.86946 6.9704 5.46495 6.71159 4.84392L6.30564 3.86983H6.16668ZM0.333344 6.36983C0.333344 3.14817 2.94502 0.536499 6.16668 0.536499H17.8333C21.055 0.536499 23.6667 3.14817 23.6667 6.36983V31.6303C23.6667 34.8519 21.055 37.4636 17.8333 37.4636H6.16668C2.94502 37.4636 0.333344 34.8519 0.333344 31.6303V6.36983Z" fill="#FF5A30"/>
</svg>
